<svg version="1.1" id="Layer_1" xmlns="http://www.w3.org/2000/svg" xmlns:xlink="http://www.w3.org/1999/xlink" x="0px"
	y="0px" width="100%" viewBox="0 0 240 240" enable-background="new 0 0 240 240" xml:space="preserve">
	<path fill="#FEFEFE" opacity="1.000000" stroke="none" d="
M1.000000,183.000000 
	C1.000000,141.979111 1.000000,100.958214 1.351700,59.776703 
	C2.130294,58.960613 2.855440,58.341797 2.941148,57.644394 
	C6.568195,28.131130 28.291014,6.862750 57.080078,2.927092 
	C57.794518,2.829423 58.363289,1.666237 59.000000,1.000000 
	C100.020897,1.000000 141.041794,1.000000 182.223312,1.351692 
	C183.039474,2.130289 183.658340,2.855436 184.355804,2.941165 
	C213.880066,6.570159 235.146545,28.310810 239.072861,57.078018 
	C239.170456,57.793037 240.333740,58.362598 241.000000,59.000000 
	C241.000000,100.020897 241.000000,141.041794 240.647827,182.224060 
	C239.869080,183.041687 239.144363,183.661362 239.058762,184.359421 
	C235.438766,213.877991 213.682816,235.146347 184.920868,239.072861 
	C184.206192,239.170425 183.637024,240.333740 183.000000,241.000000 
	C141.979111,241.000000 100.958214,241.000000 59.776314,240.648102 
	C58.959545,239.869446 58.340393,239.144485 57.642735,239.058823 
	C28.133839,235.434967 6.859313,213.705322 2.927069,184.918411 
	C2.829552,184.204514 1.666235,183.636215 1.000000,183.000000 
M123.500000,22.990374 
	C102.983238,23.658869 82.393417,23.487213 61.972912,25.262774 
	C45.755844,26.672846 33.794174,35.303970 27.718946,51.438145 
	C23.617476,62.330555 23.558250,73.630447 23.223675,84.749451 
	C22.497152,108.894035 22.728907,133.080170 23.136793,157.239746 
	C23.293409,166.516388 24.326506,175.901138 26.147461,184.998993 
	C29.148386,199.992218 38.241821,210.670807 53.046848,214.743698 
	C62.534660,217.353806 72.658394,218.808395 82.493233,218.789490 
	C115.181038,218.726608 147.973480,221.017242 180.530563,216.843414 
	C196.476059,214.799194 208.312347,206.513321 214.286484,190.558975 
	C218.367355,179.660736 218.444016,168.362686 218.777237,157.241119 
	C219.500671,133.096344 219.271118,108.910339 218.863174,84.750778 
	C218.706512,75.472031 217.680008,66.083252 215.850906,56.985657 
	C212.838608,42.002953 203.769302,31.227299 188.936996,27.277939 
	C178.797104,24.578012 168.035217,23.797485 157.490524,23.149261 
	C146.531830,22.475588 135.499908,22.993523 123.500000,22.990374 
z" />
	<path fill="#000000" opacity="1.000000" stroke="none" d="
M58.531342,1.000000 
	C58.363289,1.666237 57.794518,2.829423 57.080078,2.927092 
	C28.291014,6.862750 6.568195,28.131130 2.941148,57.644394 
	C2.855440,58.341797 2.130294,58.960613 1.351700,59.308044 
	C1.000000,39.739868 1.000000,20.479736 1.000000,1.000000 
	C20.020330,1.000000 39.041508,1.000000 58.531342,1.000000 
z" />
	<path fill="#000000" opacity="1.000000" stroke="none" d="
M241.000000,58.531342 
	C240.333740,58.362598 239.170456,57.793037 239.072861,57.078018 
	C235.146545,28.310810 213.880066,6.570159 184.355804,2.941165 
	C183.658340,2.855436 183.039474,2.130289 182.691971,1.351692 
	C202.260132,1.000000 221.520248,1.000000 241.000000,1.000000 
	C241.000000,20.020330 241.000000,39.041508 241.000000,58.531342 
z" />
	<path fill="#000000" opacity="1.000000" stroke="none" d="
M1.000000,183.468658 
	C1.666235,183.636215 2.829552,184.204514 2.927069,184.918411 
	C6.859313,213.705322 28.133839,235.434967 57.642735,239.058823 
	C58.340393,239.144485 58.959545,239.869446 59.307655,240.648102 
	C39.739868,241.000000 20.479736,241.000000 1.000000,241.000000 
	C1.000000,221.979675 1.000000,202.958496 1.000000,183.468658 
z" />
	<path fill="#000000" opacity="1.000000" stroke="none" d="
M183.468658,241.000000 
	C183.637024,240.333740 184.206192,239.170425 184.920868,239.072861 
	C213.682816,235.146347 235.438766,213.877991 239.058762,184.359421 
	C239.144363,183.661362 239.869080,183.041687 240.647827,182.692719 
	C241.000000,202.260132 241.000000,221.520264 241.000000,241.000000 
	C221.979675,241.000000 202.958496,241.000000 183.468658,241.000000 
z" />
	<path fill="#000000" opacity="1.000000" stroke="none" d="
M124.000000,22.990372 
	C135.499908,22.993523 146.531830,22.475588 157.490524,23.149261 
	C168.035217,23.797485 178.797104,24.578012 188.936996,27.277939 
	C203.769302,31.227299 212.838608,42.002953 215.850906,56.985657 
	C217.680008,66.083252 218.706512,75.472031 218.863174,84.750778 
	C219.271118,108.910339 219.500671,133.096344 218.777237,157.241119 
	C218.444016,168.362686 218.367355,179.660736 214.286484,190.558975 
	C208.312347,206.513321 196.476059,214.799194 180.530563,216.843414 
	C147.973480,221.017242 115.181038,218.726608 82.493233,218.789490 
	C72.658394,218.808395 62.534660,217.353806 53.046848,214.743698 
	C38.241821,210.670807 29.148386,199.992218 26.147461,184.998993 
	C24.326506,175.901138 23.293409,166.516388 23.136793,157.239746 
	C22.728907,133.080170 22.497152,108.894035 23.223675,84.749451 
	C23.558250,73.630447 23.617476,62.330555 27.718946,51.438145 
	C33.794174,35.303970 45.755844,26.672846 61.972912,25.262774 
	C82.393417,23.487213 102.983238,23.658869 124.000000,22.990372 
M95.723122,64.044785 
	C74.816940,73.826385 62.220192,90.433456 59.352623,112.968170 
	C56.660259,134.125992 63.295677,152.772110 79.811127,167.424088 
	C95.877716,181.677841 114.751373,186.314636 134.947174,181.612946 
	C161.988861,175.317490 179.656113,155.510376 182.738861,127.870598 
	C185.106461,106.642838 178.251434,87.907921 161.309418,73.861275 
	C141.744781,57.640198 120.012848,54.807209 95.723122,64.044785 
M191.777725,43.306488 
	C190.848923,43.042141 189.916412,42.790077 188.991913,42.511475 
	C182.422272,40.531696 175.185745,43.635563 171.636475,49.960819 
	C168.773422,55.063160 170.012482,64.407936 174.636032,67.923515 
	C179.260544,71.439819 184.561157,73.450539 190.524902,70.973579 
	C196.084198,68.664597 199.473755,64.539772 199.924789,58.550934 
	C200.398956,52.254990 198.398300,46.934788 191.777725,43.306488 
z" />
	<path fill="#FEFEFE" opacity="1.000000" stroke="none" d="
M96.116173,63.999512 
	C120.012848,54.807209 141.744781,57.640198 161.309418,73.861275 
	C178.251434,87.907921 185.106461,106.642838 182.738861,127.870598 
	C179.656113,155.510376 161.988861,175.317490 134.947174,181.612946 
	C114.751373,186.314636 95.877716,181.677841 79.811127,167.424088 
	C63.295677,152.772110 56.660259,134.125992 59.352623,112.968170 
	C62.220192,90.433456 74.816940,73.826385 96.116173,63.999512 
M153.070572,143.559814 
	C158.698441,136.240723 160.493362,127.941338 160.114075,118.806755 
	C159.132599,95.170029 137.674820,77.109970 112.825562,82.407669 
	C88.832336,87.522888 75.623322,110.729324 84.159325,134.681763 
	C91.408127,155.022278 112.069397,164.572952 132.983337,158.552124 
	C141.267166,156.167358 147.578613,150.816498 153.070572,143.559814 
z" />
	<path fill="#FEFEFE" opacity="1.000000" stroke="none" d="
M192.056152,43.588463 
	C198.398300,46.934788 200.398956,52.254990 199.924789,58.550934 
	C199.473755,64.539772 196.084198,68.664597 190.524902,70.973579 
	C184.561157,73.450539 179.260544,71.439819 174.636032,67.923515 
	C170.012482,64.407936 168.773422,55.063160 171.636475,49.960819 
	C175.185745,43.635563 182.422272,40.531696 188.991913,42.511475 
	C189.916412,42.790077 190.848923,43.042141 192.056152,43.588463 
z" />
	<path fill="#000000" opacity="1.000000" stroke="none" d="
M153.026871,143.925629 
	C147.578613,150.816498 141.267166,156.167358 132.983337,158.552124 
	C112.069397,164.572952 91.408127,155.022278 84.159325,134.681763 
	C75.623322,110.729324 88.832336,87.522888 112.825562,82.407669 
	C137.674820,77.109970 159.132599,95.170029 160.114075,118.806755 
	C160.493362,127.941338 158.698441,136.240723 153.026871,143.925629 
z" />
</svg>